<?xml version="1.0" encoding="UTF-8" standalone="no"?>
<!-- Created with Inkscape (http://www.inkscape.org/) -->

<svg
   version="1.1"
   id="svg2"
   width="85.333336"
   height="85.333336"
   viewBox="0 0 85.333336 85.333336"
   sodipodi:docname="KROP__LOGO__BLACK__VECTOR.ai"
   xmlns:inkscape="http://www.inkscape.org/namespaces/inkscape"
   xmlns:sodipodi="http://sodipodi.sourceforge.net/DTD/sodipodi-0.dtd"
   xmlns="http://www.w3.org/2000/svg"
   xmlns:svg="http://www.w3.org/2000/svg">
  <defs
     id="defs6">
    <clipPath
       clipPathUnits="userSpaceOnUse"
       id="clipPath24">
      <path
         d="M 0,64 H 64 V 0 H 0 Z"
         id="path22" />
    </clipPath>
  </defs>
  <sodipodi:namedview
     id="namedview4"
     pagecolor="#ffffff"
     bordercolor="#000000"
     borderopacity="0.25"
     inkscape:showpageshadow="2"
     inkscape:pageopacity="0.0"
     inkscape:pagecheckerboard="0"
     inkscape:deskcolor="#d1d1d1" />
  <g
     id="g8"
     inkscape:groupmode="layer"
     inkscape:label="KROP__LOGO__BLACK__VECTOR"
     transform="matrix(1.3333333,0,0,-1.3333333,0,85.333333)">
    <g
       id="g10"
       transform="translate(26.5487,57.75)">
      <path
         d="m 0,0 1.41,-3.065 0.944,-2.06 0.81,-1.766 0.809,-1.741 8.019,-17.425 11.698,-25.431"
         style="fill:none;stroke:#000000;stroke-width:1;stroke-linecap:butt;stroke-linejoin:miter;stroke-miterlimit:10;stroke-dasharray:none;stroke-opacity:1"
         id="path12" />
    </g>
    <g
       id="g14"
       transform="translate(10.9083,39.6637)">
      <path
         d="M 0,0 H 23.896"
         style="fill:none;stroke:#000000;stroke-width:1;stroke-linecap:butt;stroke-linejoin:miter;stroke-miterlimit:10;stroke-dasharray:none;stroke-opacity:1"
         id="path16" />
    </g>
    <g
       id="g18">
      <g
         id="g20"
         clip-path="url(#clipPath24)">
        <g
           id="g26"
           transform="translate(26.2357,30.8351)">
          <path
             d="m 0,0 c 0,-1.693 -1.372,-3.065 -3.065,-3.065 -1.693,0 -3.066,1.372 -3.066,3.065 0,1.693 1.373,3.065 3.066,3.065 C -1.372,3.065 0,1.693 0,0 Z"
             style="fill:none;stroke:#000000;stroke-width:1;stroke-linecap:butt;stroke-linejoin:miter;stroke-miterlimit:10;stroke-dasharray:none;stroke-opacity:1"
             id="path28" />
        </g>
        <g
           id="g30"
           transform="translate(23.9059,31.0804)">
          <path
             d="m 0,0 c 0,-0.339 -0.274,-0.613 -0.613,-0.613 -0.339,0 -0.613,0.274 -0.613,0.613 0,0.339 0.274,0.613 0.613,0.613 C -0.274,0.613 0,0.339 0,0 Z"
             style="fill:none;stroke:#000000;stroke-width:0.5;stroke-linecap:butt;stroke-linejoin:miter;stroke-miterlimit:10;stroke-dasharray:none;stroke-opacity:1"
             id="path32" />
        </g>
        <g
           id="g34"
           transform="translate(21.9563,40.7673)">
          <path
             d="M 0,0 H -0.012"
             style="fill:none;stroke:#000000;stroke-width:1;stroke-linecap:butt;stroke-linejoin:miter;stroke-miterlimit:10;stroke-dasharray:none;stroke-opacity:1"
             id="path36" />
        </g>
        <g
           id="g38"
           transform="translate(27.1676,39.5166)">
          <path
             d="M 0,0 C -0.074,0.049 -0.135,0.098 -0.208,0.147"
             style="fill:none;stroke:#000000;stroke-width:1;stroke-linecap:butt;stroke-linejoin:miter;stroke-miterlimit:10;stroke-dasharray:none;stroke-opacity:1"
             id="path40" />
        </g>
        <g
           id="g42"
           transform="translate(25.5555,6.25)">
          <path
             d="m 0,0 -1.741,3.519 -0.221,0.466 -2.857,5.947 -0.674,1.41 -2.796,5.812 -1.189,2.465 -1.03,2.146 -1.668,3.544 v 0.012"
             style="fill:none;stroke:#000000;stroke-width:1;stroke-linecap:butt;stroke-linejoin:miter;stroke-miterlimit:10;stroke-dasharray:none;stroke-opacity:1"
             id="path44" />
        </g>
        <g
           id="g46"
           transform="translate(37.3021,10.2351)">
          <path
             d="m 0,0 h -28.832 c -0.008,0 -0.014,0.007 -0.014,0.015 v 5.127 c 0,1.224 0.991,2.215 2.214,2.215 h 25 c 1.223,0 2.214,-0.991 2.214,-2.215 V 0.582 C 0.582,0.261 0.322,0 0,0 Z"
             style="fill:none;stroke:#000000;stroke-width:1;stroke-linecap:butt;stroke-linejoin:miter;stroke-miterlimit:10;stroke-dasharray:none;stroke-opacity:1"
             id="path48" />
        </g>
        <g
           id="g50"
           transform="translate(15.0528,17.5923)">
          <path
             d="m 0,0 1.03,8.277 0.336,2.686 c 0.013,0.11 0.166,0.19 0.226,0.098 1.621,-2.478 2.847,-4.93 6.525,-4.93 2.714,0 5.09,1.711 6.363,4.27 0.052,0.104 0.201,0.085 0.219,-0.03 L 16.321,0"
             style="fill:none;stroke:#000000;stroke-width:1;stroke-linecap:butt;stroke-linejoin:miter;stroke-miterlimit:10;stroke-dasharray:none;stroke-opacity:1"
             id="path52" />
        </g>
        <g
           id="g54"
           transform="translate(32.3666,51.9256)">
          <path
             d="m 0,0 c 0,-1.693 -1.372,-3.065 -3.065,-3.065 -1.693,0 -3.066,1.372 -3.066,3.065 0,1.693 1.373,3.065 3.066,3.065 C -1.372,3.065 0,1.693 0,0 Z"
             style="fill:none;stroke:#000000;stroke-width:1;stroke-linecap:butt;stroke-linejoin:miter;stroke-miterlimit:10;stroke-dasharray:none;stroke-opacity:1"
             id="path56" />
        </g>
        <g
           id="g58"
           transform="translate(28.4183,52.6736)">
          <path
             d="m 0,0 c 0.245,-0.012 0.552,-0.049 0.944,-0.135 0.662,0 0.981,-0.797 0.527,-1.251 C 1.373,-1.741 1.226,-2.011 1.03,-2.207"
             style="fill:none;stroke:#000000;stroke-width:0.25;stroke-linecap:butt;stroke-linejoin:miter;stroke-miterlimit:10;stroke-dasharray:none;stroke-opacity:1"
             id="path60" />
        </g>
        <g
           id="g62"
           transform="translate(43.4368,49.7798)">
          <path
             d="m 0,0 h -9.265 c -0.151,0 -0.272,0.122 -0.272,0.272 v 0.437 c 0,0.15 0.121,0.272 0.272,0.272 H 0 c 0.15,0 0.272,-0.122 0.272,-0.272 V 0.272 C 0.272,0.122 0.15,0 0,0"
             style="fill:#000000;fill-opacity:1;fill-rule:nonzero;stroke:none"
             id="path64" />
        </g>
        <g
           id="g66"
           transform="translate(43.4368,49.7798)">
          <path
             d="m 0,0 h -9.265 c -0.151,0 -0.272,0.122 -0.272,0.272 v 0.437 c 0,0.15 0.121,0.272 0.272,0.272 H 0 c 0.15,0 0.272,-0.122 0.272,-0.272 V 0.272 C 0.272,0.122 0.15,0 0,0 Z"
             style="fill:none;stroke:#000000;stroke-width:0.25;stroke-linecap:butt;stroke-linejoin:miter;stroke-miterlimit:10;stroke-dasharray:none;stroke-opacity:1"
             id="path68" />
        </g>
        <g
           id="g70"
           transform="translate(62.4938,31.69)">
          <path
             d="m 0,0 h -0.13 -23.82 -0.24"
             style="fill:none;stroke:#000000;stroke-width:1;stroke-linecap:butt;stroke-linejoin:miter;stroke-miterlimit:10;stroke-dasharray:none;stroke-opacity:1"
             id="path72" />
        </g>
        <g
           id="g74"
           transform="translate(45.5482,40.9584)">
          <path
             d="M 0,0 -1.597,-1.18 C -1.749,-1.293 -1.839,-1.471 -1.839,-1.66 V -6.268"
             style="fill:none;stroke:#000000;stroke-width:1;stroke-linecap:butt;stroke-linejoin:miter;stroke-miterlimit:10;stroke-dasharray:none;stroke-opacity:1"
             id="path76" />
        </g>
        <g
           id="g78"
           transform="translate(51.9857,40.9584)">
          <path
             d="M 0,0 1.572,-1.161 C 1.74,-1.286 1.839,-1.483 1.839,-1.692 v -4.576"
             style="fill:none;stroke:#000000;stroke-width:1;stroke-linecap:butt;stroke-linejoin:miter;stroke-miterlimit:10;stroke-dasharray:none;stroke-opacity:1"
             id="path80" />
        </g>
        <g
           id="g82"
           transform="translate(51.3726,43.3423)">
          <path
             d="m 0,0 c 0,-1.349 -1.104,-2.452 -2.452,-2.452 -1.349,0 -2.453,1.103 -2.453,2.452"
             style="fill:none;stroke:#000000;stroke-width:1;stroke-linecap:butt;stroke-linejoin:miter;stroke-miterlimit:10;stroke-dasharray:none;stroke-opacity:1"
             id="path84" />
        </g>
        <g
           id="g86"
           transform="translate(48.9202,37.2849)">
          <path
             d="M 0,0 V 3.605"
             style="fill:none;stroke:#000000;stroke-width:1;stroke-linecap:butt;stroke-linejoin:miter;stroke-miterlimit:10;stroke-dasharray:none;stroke-opacity:1"
             id="path88" />
        </g>
        <g
           id="g90"
           transform="translate(24.6683,49.1054)">
          <path
             d="M 0,0 -2.987,-8.35 H -3 l -0.402,-1.128 -1.039,-2.931 c 0.688,0.294 1.467,0.478 2.272,0.515 1.351,0.049 2.623,-0.307 3.649,-0.969 l 1.247,3.483 0.052,0.147 2.467,6.915"
             style="fill:none;stroke:#000000;stroke-width:1;stroke-linecap:butt;stroke-linejoin:miter;stroke-miterlimit:10;stroke-dasharray:none;stroke-opacity:1"
             id="path92" />
        </g>
        <g
           id="g94"
           transform="translate(45.8547,50.6994)">
          <path
             d="m 0,0 v -4.515 c 0,-0.215 0.174,-0.39 0.389,-0.39 h 5.693 l 0.049,2.968 v 1.888 1.373 c 0,1.643 -1.238,2.968 -2.783,2.968 h -15.5"
             style="fill:none;stroke:#000000;stroke-width:1;stroke-linecap:butt;stroke-linejoin:miter;stroke-miterlimit:10;stroke-dasharray:none;stroke-opacity:1"
             id="path96" />
        </g>
        <g
           id="g98"
           transform="translate(62.4938,31.69)">
          <path
             d="M 0,0 -0.06,-0.14"
             style="fill:none;stroke:#000000;stroke-width:1;stroke-linecap:butt;stroke-linejoin:miter;stroke-miterlimit:10;stroke-dasharray:none;stroke-opacity:1"
             id="path100" />
        </g>
        <g
           id="g102"
           transform="translate(50.2338,6.26)">
          <path
             d="M 0,0 C 0.09,0.01 0.18,0.08 0.22,0.17 L 12.2,25.29 12.13,25.43 0.22,51.31 c -0.05,0.11 -0.16,0.18 -0.28,0.18 h -23.63 -24.73 c -0.23,0 -0.37,-0.24 -0.28,-0.44 l 11.99,-25.18 c 0.04,-0.08 0.04,-0.18 0,-0.26 l -0.14,-0.3 V 25.3 L -48.7,0.43 c -0.09,-0.2 0.05,-0.44 0.28,-0.44 h 23.74 24.62 c 0.02,0 0.04,0 0.06,0.01"
             style="fill:none;stroke:#000000;stroke-width:1;stroke-linecap:butt;stroke-linejoin:miter;stroke-miterlimit:10;stroke-dasharray:none;stroke-opacity:1"
             id="path104" />
        </g>
      </g>
    </g>
  </g>
</svg>
